<mxfile host="app.diagrams.net" modified="2022-02-13T16:06:52.206Z" agent="5.0 (Windows NT 10.0; Win64; x64) AppleWebKit/537.36 (KHTML, like Gecko) Chrome/96.0.4664.110 Safari/537.36" etag="9VyRVHrjyn2AFVUZmpAQ" version="16.5.6" type="github">
  <diagram id="R2lEEEUBdFMjLlhIrx00" name="Page-1">
    <mxGraphModel dx="782" dy="446" grid="1" gridSize="10" guides="1" tooltips="1" connect="1" arrows="1" fold="1" page="1" pageScale="1" pageWidth="850" pageHeight="1100" math="0" shadow="0" extFonts="Permanent Marker^https://fonts.googleapis.com/css?family=Permanent+Marker">
      <root>
        <mxCell id="0" />
        <mxCell id="1" parent="0" />
        <mxCell id="ZTiVV1zmq2l8TF0PZbIo-10" style="edgeStyle=orthogonalEdgeStyle;rounded=0;orthogonalLoop=1;jettySize=auto;html=1;exitX=1;exitY=0.5;exitDx=0;exitDy=0;entryX=0;entryY=0.5;entryDx=0;entryDy=0;endArrow=none;endFill=0;" edge="1" parent="1" source="ZTiVV1zmq2l8TF0PZbIo-1" target="ZTiVV1zmq2l8TF0PZbIo-3">
          <mxGeometry relative="1" as="geometry" />
        </mxCell>
        <mxCell id="ZTiVV1zmq2l8TF0PZbIo-1" value="Proveedores" style="rounded=0;whiteSpace=wrap;html=1;" vertex="1" parent="1">
          <mxGeometry x="40" y="100" width="120" height="40" as="geometry" />
        </mxCell>
        <mxCell id="ZTiVV1zmq2l8TF0PZbIo-14" style="edgeStyle=orthogonalEdgeStyle;rounded=0;orthogonalLoop=1;jettySize=auto;html=1;exitX=0.25;exitY=1;exitDx=0;exitDy=0;entryX=1;entryY=0.5;entryDx=0;entryDy=0;endArrow=none;endFill=0;" edge="1" parent="1" source="ZTiVV1zmq2l8TF0PZbIo-2" target="ZTiVV1zmq2l8TF0PZbIo-13">
          <mxGeometry relative="1" as="geometry" />
        </mxCell>
        <mxCell id="ZTiVV1zmq2l8TF0PZbIo-19" style="edgeStyle=orthogonalEdgeStyle;rounded=0;orthogonalLoop=1;jettySize=auto;html=1;exitX=0.75;exitY=1;exitDx=0;exitDy=0;entryX=1;entryY=0.5;entryDx=0;entryDy=0;endArrow=none;endFill=0;" edge="1" parent="1" source="ZTiVV1zmq2l8TF0PZbIo-2" target="ZTiVV1zmq2l8TF0PZbIo-18">
          <mxGeometry relative="1" as="geometry" />
        </mxCell>
        <mxCell id="ZTiVV1zmq2l8TF0PZbIo-26" style="edgeStyle=orthogonalEdgeStyle;rounded=0;orthogonalLoop=1;jettySize=auto;html=1;exitX=1;exitY=0.5;exitDx=0;exitDy=0;entryX=0;entryY=0.5;entryDx=0;entryDy=0;endArrow=none;endFill=0;" edge="1" parent="1" source="ZTiVV1zmq2l8TF0PZbIo-2" target="ZTiVV1zmq2l8TF0PZbIo-25">
          <mxGeometry relative="1" as="geometry" />
        </mxCell>
        <mxCell id="ZTiVV1zmq2l8TF0PZbIo-2" value="Ingredientes" style="rounded=0;whiteSpace=wrap;html=1;" vertex="1" parent="1">
          <mxGeometry x="330" y="192.5" width="110" height="47.5" as="geometry" />
        </mxCell>
        <mxCell id="ZTiVV1zmq2l8TF0PZbIo-6" style="edgeStyle=orthogonalEdgeStyle;rounded=0;orthogonalLoop=1;jettySize=auto;html=1;exitX=1;exitY=0.5;exitDx=0;exitDy=0;entryX=0;entryY=0.5;entryDx=0;entryDy=0;endArrow=none;endFill=0;" edge="1" parent="1" source="ZTiVV1zmq2l8TF0PZbIo-3" target="ZTiVV1zmq2l8TF0PZbIo-2">
          <mxGeometry relative="1" as="geometry" />
        </mxCell>
        <mxCell id="ZTiVV1zmq2l8TF0PZbIo-3" value="Provee" style="rhombus;whiteSpace=wrap;html=1;" vertex="1" parent="1">
          <mxGeometry x="214" y="97.25" width="70" height="45" as="geometry" />
        </mxCell>
        <mxCell id="ZTiVV1zmq2l8TF0PZbIo-7" value="(1,1)" style="text;html=1;strokeColor=none;fillColor=none;align=center;verticalAlign=middle;whiteSpace=wrap;rounded=0;" vertex="1" parent="1">
          <mxGeometry x="147" y="100" width="60" height="14" as="geometry" />
        </mxCell>
        <mxCell id="ZTiVV1zmq2l8TF0PZbIo-11" value="(1,n)" style="text;html=1;strokeColor=none;fillColor=none;align=center;verticalAlign=middle;whiteSpace=wrap;rounded=0;" vertex="1" parent="1">
          <mxGeometry x="260" y="200" width="60" height="14" as="geometry" />
        </mxCell>
        <mxCell id="ZTiVV1zmq2l8TF0PZbIo-15" style="edgeStyle=orthogonalEdgeStyle;rounded=0;orthogonalLoop=1;jettySize=auto;html=1;exitX=1;exitY=0.5;exitDx=0;exitDy=0;entryX=0;entryY=0.5;entryDx=0;entryDy=0;endArrow=none;endFill=0;" edge="1" parent="1" source="ZTiVV1zmq2l8TF0PZbIo-12" target="ZTiVV1zmq2l8TF0PZbIo-13">
          <mxGeometry relative="1" as="geometry" />
        </mxCell>
        <mxCell id="ZTiVV1zmq2l8TF0PZbIo-12" value="Lista_Precios" style="rounded=0;whiteSpace=wrap;html=1;" vertex="1" parent="1">
          <mxGeometry x="30" y="259" width="110" height="47.5" as="geometry" />
        </mxCell>
        <mxCell id="ZTiVV1zmq2l8TF0PZbIo-13" value="Asigna" style="rhombus;whiteSpace=wrap;html=1;" vertex="1" parent="1">
          <mxGeometry x="220" y="260" width="70" height="45" as="geometry" />
        </mxCell>
        <mxCell id="ZTiVV1zmq2l8TF0PZbIo-16" value="(1,n)" style="text;html=1;strokeColor=none;fillColor=none;align=center;verticalAlign=middle;whiteSpace=wrap;rounded=0;" vertex="1" parent="1">
          <mxGeometry x="130" y="260" width="60" height="14" as="geometry" />
        </mxCell>
        <mxCell id="ZTiVV1zmq2l8TF0PZbIo-17" value="(1,n)" style="text;html=1;strokeColor=none;fillColor=none;align=center;verticalAlign=middle;whiteSpace=wrap;rounded=0;" vertex="1" parent="1">
          <mxGeometry x="313" y="246" width="60" height="14" as="geometry" />
        </mxCell>
        <mxCell id="ZTiVV1zmq2l8TF0PZbIo-21" style="edgeStyle=orthogonalEdgeStyle;rounded=0;orthogonalLoop=1;jettySize=auto;html=1;exitX=0;exitY=0.5;exitDx=0;exitDy=0;entryX=1;entryY=0.5;entryDx=0;entryDy=0;endArrow=none;endFill=0;" edge="1" parent="1" source="ZTiVV1zmq2l8TF0PZbIo-18" target="ZTiVV1zmq2l8TF0PZbIo-20">
          <mxGeometry relative="1" as="geometry" />
        </mxCell>
        <mxCell id="ZTiVV1zmq2l8TF0PZbIo-18" value="Posee" style="rhombus;whiteSpace=wrap;html=1;" vertex="1" parent="1">
          <mxGeometry x="251.5" y="330" width="77" height="50" as="geometry" />
        </mxCell>
        <mxCell id="ZTiVV1zmq2l8TF0PZbIo-20" value="Lotes" style="rounded=0;whiteSpace=wrap;html=1;" vertex="1" parent="1">
          <mxGeometry x="30" y="331.5" width="110" height="47.5" as="geometry" />
        </mxCell>
        <mxCell id="ZTiVV1zmq2l8TF0PZbIo-22" value="(1,1)" style="text;html=1;strokeColor=none;fillColor=none;align=center;verticalAlign=middle;whiteSpace=wrap;rounded=0;" vertex="1" parent="1">
          <mxGeometry x="400" y="250" width="60" height="14" as="geometry" />
        </mxCell>
        <mxCell id="ZTiVV1zmq2l8TF0PZbIo-23" value="(1,n)" style="text;html=1;strokeColor=none;fillColor=none;align=center;verticalAlign=middle;whiteSpace=wrap;rounded=0;" vertex="1" parent="1">
          <mxGeometry x="130" y="340" width="60" height="14" as="geometry" />
        </mxCell>
        <mxCell id="ZTiVV1zmq2l8TF0PZbIo-32" style="edgeStyle=orthogonalEdgeStyle;rounded=0;orthogonalLoop=1;jettySize=auto;html=1;exitX=0.75;exitY=1;exitDx=0;exitDy=0;entryX=1;entryY=0.5;entryDx=0;entryDy=0;endArrow=none;endFill=0;" edge="1" parent="1" source="ZTiVV1zmq2l8TF0PZbIo-24" target="ZTiVV1zmq2l8TF0PZbIo-30">
          <mxGeometry relative="1" as="geometry">
            <Array as="points">
              <mxPoint x="723" y="308" />
            </Array>
          </mxGeometry>
        </mxCell>
        <mxCell id="ZTiVV1zmq2l8TF0PZbIo-24" value="Productos" style="rounded=0;whiteSpace=wrap;html=1;" vertex="1" parent="1">
          <mxGeometry x="640" y="192.5" width="110" height="47.5" as="geometry" />
        </mxCell>
        <mxCell id="ZTiVV1zmq2l8TF0PZbIo-27" style="edgeStyle=orthogonalEdgeStyle;rounded=0;orthogonalLoop=1;jettySize=auto;html=1;exitX=1;exitY=0.5;exitDx=0;exitDy=0;entryX=0;entryY=0.5;entryDx=0;entryDy=0;endArrow=none;endFill=0;" edge="1" parent="1" source="ZTiVV1zmq2l8TF0PZbIo-25" target="ZTiVV1zmq2l8TF0PZbIo-24">
          <mxGeometry relative="1" as="geometry" />
        </mxCell>
        <mxCell id="ZTiVV1zmq2l8TF0PZbIo-25" value="Fabricado" style="rhombus;whiteSpace=wrap;html=1;" vertex="1" parent="1">
          <mxGeometry x="500" y="193.5" width="80" height="45" as="geometry" />
        </mxCell>
        <mxCell id="ZTiVV1zmq2l8TF0PZbIo-28" value="(1,n)" style="text;html=1;strokeColor=none;fillColor=none;align=center;verticalAlign=middle;whiteSpace=wrap;rounded=0;" vertex="1" parent="1">
          <mxGeometry x="425" y="200" width="60" height="14" as="geometry" />
        </mxCell>
        <mxCell id="ZTiVV1zmq2l8TF0PZbIo-29" value="(1,n)" style="text;html=1;strokeColor=none;fillColor=none;align=center;verticalAlign=middle;whiteSpace=wrap;rounded=0;" vertex="1" parent="1">
          <mxGeometry x="596" y="200" width="60" height="14" as="geometry" />
        </mxCell>
        <mxCell id="ZTiVV1zmq2l8TF0PZbIo-33" style="edgeStyle=orthogonalEdgeStyle;rounded=0;orthogonalLoop=1;jettySize=auto;html=1;exitX=0;exitY=0.5;exitDx=0;exitDy=0;entryX=1;entryY=0.5;entryDx=0;entryDy=0;endArrow=none;endFill=0;" edge="1" parent="1" source="ZTiVV1zmq2l8TF0PZbIo-30" target="ZTiVV1zmq2l8TF0PZbIo-31">
          <mxGeometry relative="1" as="geometry" />
        </mxCell>
        <mxCell id="ZTiVV1zmq2l8TF0PZbIo-30" value="Diferenciado" style="rhombus;whiteSpace=wrap;html=1;" vertex="1" parent="1">
          <mxGeometry x="612" y="285" width="100" height="45" as="geometry" />
        </mxCell>
        <mxCell id="ZTiVV1zmq2l8TF0PZbIo-31" value="Tipo_Productos" style="rounded=0;whiteSpace=wrap;html=1;" vertex="1" parent="1">
          <mxGeometry x="460" y="283.75" width="110" height="47.5" as="geometry" />
        </mxCell>
        <mxCell id="ZTiVV1zmq2l8TF0PZbIo-34" value="(1,1)" style="text;html=1;strokeColor=none;fillColor=none;align=center;verticalAlign=middle;whiteSpace=wrap;rounded=0;" vertex="1" parent="1">
          <mxGeometry x="678" y="243" width="60" height="14" as="geometry" />
        </mxCell>
        <mxCell id="ZTiVV1zmq2l8TF0PZbIo-35" value="(1,1)" style="text;html=1;strokeColor=none;fillColor=none;align=center;verticalAlign=middle;whiteSpace=wrap;rounded=0;" vertex="1" parent="1">
          <mxGeometry x="554" y="292" width="60" height="14" as="geometry" />
        </mxCell>
        <mxCell id="ZTiVV1zmq2l8TF0PZbIo-38" style="edgeStyle=orthogonalEdgeStyle;rounded=0;orthogonalLoop=1;jettySize=auto;html=1;exitX=0;exitY=0.5;exitDx=0;exitDy=0;entryX=1;entryY=0.5;entryDx=0;entryDy=0;endArrow=none;endFill=0;" edge="1" parent="1" source="ZTiVV1zmq2l8TF0PZbIo-36" target="ZTiVV1zmq2l8TF0PZbIo-37">
          <mxGeometry relative="1" as="geometry" />
        </mxCell>
        <mxCell id="ZTiVV1zmq2l8TF0PZbIo-36" value="Detalle_Pedidos" style="rounded=0;whiteSpace=wrap;html=1;" vertex="1" parent="1">
          <mxGeometry x="923" y="192.5" width="101" height="47.5" as="geometry" />
        </mxCell>
        <mxCell id="ZTiVV1zmq2l8TF0PZbIo-39" style="edgeStyle=orthogonalEdgeStyle;rounded=0;orthogonalLoop=1;jettySize=auto;html=1;exitX=0;exitY=0.5;exitDx=0;exitDy=0;entryX=1;entryY=0.5;entryDx=0;entryDy=0;endArrow=none;endFill=0;" edge="1" parent="1" source="ZTiVV1zmq2l8TF0PZbIo-37" target="ZTiVV1zmq2l8TF0PZbIo-24">
          <mxGeometry relative="1" as="geometry" />
        </mxCell>
        <mxCell id="ZTiVV1zmq2l8TF0PZbIo-37" value="Utiliza" style="rhombus;whiteSpace=wrap;html=1;" vertex="1" parent="1">
          <mxGeometry x="796" y="193.5" width="80" height="45" as="geometry" />
        </mxCell>
        <mxCell id="ZTiVV1zmq2l8TF0PZbIo-40" value="(1,n)" style="text;html=1;strokeColor=none;fillColor=none;align=center;verticalAlign=middle;whiteSpace=wrap;rounded=0;" vertex="1" parent="1">
          <mxGeometry x="736" y="200" width="60" height="14" as="geometry" />
        </mxCell>
        <mxCell id="ZTiVV1zmq2l8TF0PZbIo-41" value="(1,n)" style="text;html=1;strokeColor=none;fillColor=none;align=center;verticalAlign=middle;whiteSpace=wrap;rounded=0;" vertex="1" parent="1">
          <mxGeometry x="878" y="199" width="60" height="14" as="geometry" />
        </mxCell>
        <mxCell id="ZTiVV1zmq2l8TF0PZbIo-53" style="edgeStyle=orthogonalEdgeStyle;rounded=0;orthogonalLoop=1;jettySize=auto;html=1;exitX=0;exitY=0.5;exitDx=0;exitDy=0;entryX=1;entryY=0.5;entryDx=0;entryDy=0;endArrow=none;endFill=0;" edge="1" parent="1" source="ZTiVV1zmq2l8TF0PZbIo-44" target="ZTiVV1zmq2l8TF0PZbIo-52">
          <mxGeometry relative="1" as="geometry" />
        </mxCell>
        <mxCell id="ZTiVV1zmq2l8TF0PZbIo-98" style="edgeStyle=orthogonalEdgeStyle;rounded=0;orthogonalLoop=1;jettySize=auto;html=1;exitX=1;exitY=0.5;exitDx=0;exitDy=0;entryX=0;entryY=0.5;entryDx=0;entryDy=0;endArrow=none;endFill=0;" edge="1" parent="1" source="ZTiVV1zmq2l8TF0PZbIo-44" target="ZTiVV1zmq2l8TF0PZbIo-97">
          <mxGeometry relative="1" as="geometry">
            <Array as="points">
              <mxPoint x="1255" y="151" />
              <mxPoint x="1255" y="92" />
            </Array>
          </mxGeometry>
        </mxCell>
        <mxCell id="ZTiVV1zmq2l8TF0PZbIo-44" value="Pedidos" style="rounded=0;whiteSpace=wrap;html=1;" vertex="1" parent="1">
          <mxGeometry x="1142" y="127" width="101" height="47.5" as="geometry" />
        </mxCell>
        <mxCell id="ZTiVV1zmq2l8TF0PZbIo-47" style="edgeStyle=orthogonalEdgeStyle;rounded=0;orthogonalLoop=1;jettySize=auto;html=1;exitX=1;exitY=0.5;exitDx=0;exitDy=0;entryX=0.5;entryY=1;entryDx=0;entryDy=0;endArrow=none;endFill=0;" edge="1" parent="1" source="ZTiVV1zmq2l8TF0PZbIo-45" target="ZTiVV1zmq2l8TF0PZbIo-44">
          <mxGeometry relative="1" as="geometry">
            <Array as="points">
              <mxPoint x="1160" y="217" />
              <mxPoint x="1160" y="175" />
            </Array>
          </mxGeometry>
        </mxCell>
        <mxCell id="ZTiVV1zmq2l8TF0PZbIo-48" style="edgeStyle=orthogonalEdgeStyle;rounded=0;orthogonalLoop=1;jettySize=auto;html=1;exitX=0;exitY=0.5;exitDx=0;exitDy=0;endArrow=none;endFill=0;" edge="1" parent="1" source="ZTiVV1zmq2l8TF0PZbIo-45" target="ZTiVV1zmq2l8TF0PZbIo-36">
          <mxGeometry relative="1" as="geometry" />
        </mxCell>
        <mxCell id="ZTiVV1zmq2l8TF0PZbIo-45" value="Genera" style="rhombus;whiteSpace=wrap;html=1;" vertex="1" parent="1">
          <mxGeometry x="1062" y="194" width="80" height="45" as="geometry" />
        </mxCell>
        <mxCell id="ZTiVV1zmq2l8TF0PZbIo-49" value="(1,1)" style="text;html=1;strokeColor=none;fillColor=none;align=center;verticalAlign=middle;whiteSpace=wrap;rounded=0;" vertex="1" parent="1">
          <mxGeometry x="1115" y="177.5" width="60" height="14" as="geometry" />
        </mxCell>
        <mxCell id="ZTiVV1zmq2l8TF0PZbIo-50" value="(1,1)" style="text;html=1;strokeColor=none;fillColor=none;align=center;verticalAlign=middle;whiteSpace=wrap;rounded=0;" vertex="1" parent="1">
          <mxGeometry x="1008" y="200" width="60" height="14" as="geometry" />
        </mxCell>
        <mxCell id="ZTiVV1zmq2l8TF0PZbIo-52" value="Posse" style="rhombus;whiteSpace=wrap;html=1;" vertex="1" parent="1">
          <mxGeometry x="980" y="97.25" width="80" height="45" as="geometry" />
        </mxCell>
        <mxCell id="ZTiVV1zmq2l8TF0PZbIo-55" style="edgeStyle=orthogonalEdgeStyle;rounded=0;orthogonalLoop=1;jettySize=auto;html=1;exitX=1;exitY=0.5;exitDx=0;exitDy=0;entryX=0;entryY=0.5;entryDx=0;entryDy=0;endArrow=none;endFill=0;" edge="1" parent="1" source="ZTiVV1zmq2l8TF0PZbIo-54" target="ZTiVV1zmq2l8TF0PZbIo-52">
          <mxGeometry relative="1" as="geometry" />
        </mxCell>
        <mxCell id="ZTiVV1zmq2l8TF0PZbIo-54" value="Descuentos" style="rounded=0;whiteSpace=wrap;html=1;" vertex="1" parent="1">
          <mxGeometry x="822" y="95.75" width="101" height="47.5" as="geometry" />
        </mxCell>
        <mxCell id="ZTiVV1zmq2l8TF0PZbIo-56" value="(1,1)" style="text;html=1;strokeColor=none;fillColor=none;align=center;verticalAlign=middle;whiteSpace=wrap;rounded=0;" vertex="1" parent="1">
          <mxGeometry x="1085" y="135.25" width="60" height="14" as="geometry" />
        </mxCell>
        <mxCell id="ZTiVV1zmq2l8TF0PZbIo-57" value="(1,1)" style="text;html=1;strokeColor=none;fillColor=none;align=center;verticalAlign=middle;whiteSpace=wrap;rounded=0;" vertex="1" parent="1">
          <mxGeometry x="907" y="103.25" width="60" height="14" as="geometry" />
        </mxCell>
        <mxCell id="ZTiVV1zmq2l8TF0PZbIo-58" style="edgeStyle=orthogonalEdgeStyle;rounded=0;orthogonalLoop=1;jettySize=auto;html=1;exitX=0.5;exitY=0;exitDx=0;exitDy=0;entryX=0.5;entryY=1;entryDx=0;entryDy=0;endArrow=none;endFill=0;" edge="1" parent="1" target="ZTiVV1zmq2l8TF0PZbIo-59" source="ZTiVV1zmq2l8TF0PZbIo-44">
          <mxGeometry relative="1" as="geometry">
            <mxPoint x="1347" as="sourcePoint" />
          </mxGeometry>
        </mxCell>
        <mxCell id="ZTiVV1zmq2l8TF0PZbIo-59" value="Solicita" style="rhombus;whiteSpace=wrap;html=1;" vertex="1" parent="1">
          <mxGeometry x="1152" y="40" width="80" height="45" as="geometry" />
        </mxCell>
        <mxCell id="ZTiVV1zmq2l8TF0PZbIo-60" style="edgeStyle=orthogonalEdgeStyle;rounded=0;orthogonalLoop=1;jettySize=auto;html=1;exitX=1;exitY=0.5;exitDx=0;exitDy=0;entryX=0;entryY=0.5;entryDx=0;entryDy=0;endArrow=none;endFill=0;" edge="1" parent="1" source="ZTiVV1zmq2l8TF0PZbIo-61" target="ZTiVV1zmq2l8TF0PZbIo-59">
          <mxGeometry relative="1" as="geometry" />
        </mxCell>
        <mxCell id="ZTiVV1zmq2l8TF0PZbIo-61" value="Domicilio" style="rounded=0;whiteSpace=wrap;html=1;" vertex="1" parent="1">
          <mxGeometry x="973" y="38" width="101" height="47.5" as="geometry" />
        </mxCell>
        <mxCell id="ZTiVV1zmq2l8TF0PZbIo-63" value="(1,1)" style="text;html=1;strokeColor=none;fillColor=none;align=center;verticalAlign=middle;whiteSpace=wrap;rounded=0;" vertex="1" parent="1">
          <mxGeometry x="1060" y="45" width="60" height="14" as="geometry" />
        </mxCell>
        <mxCell id="ZTiVV1zmq2l8TF0PZbIo-69" value="(1,1)" style="text;html=1;strokeColor=none;fillColor=none;align=center;verticalAlign=middle;whiteSpace=wrap;rounded=0;" vertex="1" parent="1">
          <mxGeometry x="1149" y="109.25" width="60" height="14" as="geometry" />
        </mxCell>
        <mxCell id="ZTiVV1zmq2l8TF0PZbIo-72" style="edgeStyle=orthogonalEdgeStyle;rounded=0;orthogonalLoop=1;jettySize=auto;html=1;exitX=0;exitY=0.5;exitDx=0;exitDy=0;entryX=1;entryY=0.5;entryDx=0;entryDy=0;endArrow=none;endFill=0;" edge="1" parent="1" source="ZTiVV1zmq2l8TF0PZbIo-73" target="ZTiVV1zmq2l8TF0PZbIo-74">
          <mxGeometry relative="1" as="geometry" />
        </mxCell>
        <mxCell id="ZTiVV1zmq2l8TF0PZbIo-78" style="edgeStyle=orthogonalEdgeStyle;rounded=0;orthogonalLoop=1;jettySize=auto;html=1;exitX=0.5;exitY=0;exitDx=0;exitDy=0;entryX=0.5;entryY=1;entryDx=0;entryDy=0;endArrow=none;endFill=0;" edge="1" parent="1" source="ZTiVV1zmq2l8TF0PZbIo-73" target="ZTiVV1zmq2l8TF0PZbIo-44">
          <mxGeometry relative="1" as="geometry" />
        </mxCell>
        <mxCell id="ZTiVV1zmq2l8TF0PZbIo-73" value="Crea" style="rhombus;whiteSpace=wrap;html=1;" vertex="1" parent="1">
          <mxGeometry x="1130" y="274" width="100" height="45" as="geometry" />
        </mxCell>
        <mxCell id="ZTiVV1zmq2l8TF0PZbIo-74" value="Cliente" style="rounded=0;whiteSpace=wrap;html=1;" vertex="1" parent="1">
          <mxGeometry x="942" y="273.63" width="110" height="47.5" as="geometry" />
        </mxCell>
        <mxCell id="ZTiVV1zmq2l8TF0PZbIo-75" value="(1,1)" style="text;html=1;strokeColor=none;fillColor=none;align=center;verticalAlign=middle;whiteSpace=wrap;rounded=0;" vertex="1" parent="1">
          <mxGeometry x="1150" y="207" width="60" height="14" as="geometry" />
        </mxCell>
        <mxCell id="ZTiVV1zmq2l8TF0PZbIo-76" value="(1,1)" style="text;html=1;strokeColor=none;fillColor=none;align=center;verticalAlign=middle;whiteSpace=wrap;rounded=0;" vertex="1" parent="1">
          <mxGeometry x="1036" y="281.88" width="60" height="14" as="geometry" />
        </mxCell>
        <mxCell id="ZTiVV1zmq2l8TF0PZbIo-79" value="Posee" style="rhombus;whiteSpace=wrap;html=1;" vertex="1" parent="1">
          <mxGeometry x="251.5" y="330" width="77" height="50" as="geometry" />
        </mxCell>
        <mxCell id="ZTiVV1zmq2l8TF0PZbIo-80" value="(1,n)" style="text;html=1;strokeColor=none;fillColor=none;align=center;verticalAlign=middle;whiteSpace=wrap;rounded=0;" vertex="1" parent="1">
          <mxGeometry x="130" y="340" width="60" height="14" as="geometry" />
        </mxCell>
        <mxCell id="ZTiVV1zmq2l8TF0PZbIo-81" style="edgeStyle=orthogonalEdgeStyle;rounded=0;orthogonalLoop=1;jettySize=auto;html=1;exitX=0;exitY=0.5;exitDx=0;exitDy=0;entryX=1;entryY=0.5;entryDx=0;entryDy=0;endArrow=none;endFill=0;" edge="1" source="ZTiVV1zmq2l8TF0PZbIo-79" parent="1">
          <mxGeometry relative="1" as="geometry">
            <mxPoint x="140" y="355.25" as="targetPoint" />
          </mxGeometry>
        </mxCell>
        <mxCell id="ZTiVV1zmq2l8TF0PZbIo-93" style="edgeStyle=orthogonalEdgeStyle;rounded=0;orthogonalLoop=1;jettySize=auto;html=1;exitX=0.5;exitY=1;exitDx=0;exitDy=0;entryX=0;entryY=0.5;entryDx=0;entryDy=0;endArrow=none;endFill=0;" edge="1" parent="1" source="ZTiVV1zmq2l8TF0PZbIo-89" target="ZTiVV1zmq2l8TF0PZbIo-92">
          <mxGeometry relative="1" as="geometry" />
        </mxCell>
        <mxCell id="ZTiVV1zmq2l8TF0PZbIo-89" value="Crea" style="rhombus;whiteSpace=wrap;html=1;" vertex="1" parent="1">
          <mxGeometry x="1260" y="210" width="77" height="50" as="geometry" />
        </mxCell>
        <mxCell id="ZTiVV1zmq2l8TF0PZbIo-90" value="(1,n)" style="text;html=1;strokeColor=none;fillColor=none;align=center;verticalAlign=middle;whiteSpace=wrap;rounded=0;" vertex="1" parent="1">
          <mxGeometry x="1202" y="185" width="60" height="14" as="geometry" />
        </mxCell>
        <mxCell id="ZTiVV1zmq2l8TF0PZbIo-91" style="edgeStyle=orthogonalEdgeStyle;rounded=0;orthogonalLoop=1;jettySize=auto;html=1;exitX=0;exitY=0.5;exitDx=0;exitDy=0;entryX=0.75;entryY=1;entryDx=0;entryDy=0;endArrow=none;endFill=0;" edge="1" parent="1" source="ZTiVV1zmq2l8TF0PZbIo-89" target="ZTiVV1zmq2l8TF0PZbIo-44">
          <mxGeometry relative="1" as="geometry">
            <mxPoint x="1220" y="200.25" as="targetPoint" />
          </mxGeometry>
        </mxCell>
        <mxCell id="ZTiVV1zmq2l8TF0PZbIo-109" style="edgeStyle=orthogonalEdgeStyle;rounded=0;orthogonalLoop=1;jettySize=auto;html=1;exitX=1;exitY=0.5;exitDx=0;exitDy=0;endArrow=none;endFill=0;" edge="1" parent="1" source="ZTiVV1zmq2l8TF0PZbIo-92" target="ZTiVV1zmq2l8TF0PZbIo-107">
          <mxGeometry relative="1" as="geometry" />
        </mxCell>
        <mxCell id="ZTiVV1zmq2l8TF0PZbIo-113" style="edgeStyle=orthogonalEdgeStyle;rounded=0;orthogonalLoop=1;jettySize=auto;html=1;exitX=0.5;exitY=1;exitDx=0;exitDy=0;entryX=0.5;entryY=0;entryDx=0;entryDy=0;endArrow=none;endFill=0;" edge="1" parent="1" source="ZTiVV1zmq2l8TF0PZbIo-92" target="ZTiVV1zmq2l8TF0PZbIo-112">
          <mxGeometry relative="1" as="geometry" />
        </mxCell>
        <mxCell id="ZTiVV1zmq2l8TF0PZbIo-92" value="Empleado" style="rounded=0;whiteSpace=wrap;html=1;" vertex="1" parent="1">
          <mxGeometry x="1371" y="295.88" width="110" height="47.5" as="geometry" />
        </mxCell>
        <mxCell id="ZTiVV1zmq2l8TF0PZbIo-94" value="(1,1)" style="text;html=1;strokeColor=none;fillColor=none;align=center;verticalAlign=middle;whiteSpace=wrap;rounded=0;" vertex="1" parent="1">
          <mxGeometry x="1326" y="302.5" width="60" height="14" as="geometry" />
        </mxCell>
        <mxCell id="ZTiVV1zmq2l8TF0PZbIo-103" style="edgeStyle=orthogonalEdgeStyle;rounded=0;orthogonalLoop=1;jettySize=auto;html=1;exitX=0.5;exitY=1;exitDx=0;exitDy=0;entryX=0;entryY=0.5;entryDx=0;entryDy=0;endArrow=none;endFill=0;" edge="1" parent="1" source="ZTiVV1zmq2l8TF0PZbIo-95" target="ZTiVV1zmq2l8TF0PZbIo-102">
          <mxGeometry relative="1" as="geometry" />
        </mxCell>
        <mxCell id="ZTiVV1zmq2l8TF0PZbIo-95" value="Factura" style="rounded=0;whiteSpace=wrap;html=1;" vertex="1" parent="1">
          <mxGeometry x="1389" y="69.75" width="101" height="47.5" as="geometry" />
        </mxCell>
        <mxCell id="ZTiVV1zmq2l8TF0PZbIo-99" style="edgeStyle=orthogonalEdgeStyle;rounded=0;orthogonalLoop=1;jettySize=auto;html=1;exitX=1;exitY=0.5;exitDx=0;exitDy=0;entryX=0;entryY=0.5;entryDx=0;entryDy=0;endArrow=none;endFill=0;" edge="1" parent="1" source="ZTiVV1zmq2l8TF0PZbIo-97" target="ZTiVV1zmq2l8TF0PZbIo-95">
          <mxGeometry relative="1" as="geometry" />
        </mxCell>
        <mxCell id="ZTiVV1zmq2l8TF0PZbIo-97" value="Genera" style="rhombus;whiteSpace=wrap;html=1;" vertex="1" parent="1">
          <mxGeometry x="1275" y="69" width="80" height="45" as="geometry" />
        </mxCell>
        <mxCell id="ZTiVV1zmq2l8TF0PZbIo-100" value="(1,1)" style="text;html=1;strokeColor=none;fillColor=none;align=center;verticalAlign=middle;whiteSpace=wrap;rounded=0;" vertex="1" parent="1">
          <mxGeometry x="1240" y="135.25" width="60" height="14" as="geometry" />
        </mxCell>
        <mxCell id="ZTiVV1zmq2l8TF0PZbIo-101" value="(1,1)" style="text;html=1;strokeColor=none;fillColor=none;align=center;verticalAlign=middle;whiteSpace=wrap;rounded=0;" vertex="1" parent="1">
          <mxGeometry x="1550" y="140" width="60" height="14" as="geometry" />
        </mxCell>
        <mxCell id="ZTiVV1zmq2l8TF0PZbIo-105" style="edgeStyle=orthogonalEdgeStyle;rounded=0;orthogonalLoop=1;jettySize=auto;html=1;exitX=1;exitY=0.5;exitDx=0;exitDy=0;entryX=0;entryY=0.5;entryDx=0;entryDy=0;endArrow=none;endFill=0;" edge="1" parent="1" source="ZTiVV1zmq2l8TF0PZbIo-102" target="ZTiVV1zmq2l8TF0PZbIo-104">
          <mxGeometry relative="1" as="geometry" />
        </mxCell>
        <mxCell id="ZTiVV1zmq2l8TF0PZbIo-102" value="Asociada" style="rhombus;whiteSpace=wrap;html=1;" vertex="1" parent="1">
          <mxGeometry x="1482" y="135.25" width="80" height="45" as="geometry" />
        </mxCell>
        <mxCell id="ZTiVV1zmq2l8TF0PZbIo-104" value="Sucursal" style="rounded=0;whiteSpace=wrap;html=1;" vertex="1" parent="1">
          <mxGeometry x="1599" y="132.75" width="101" height="47.5" as="geometry" />
        </mxCell>
        <mxCell id="ZTiVV1zmq2l8TF0PZbIo-106" value="(1,n)" style="text;html=1;strokeColor=none;fillColor=none;align=center;verticalAlign=middle;whiteSpace=wrap;rounded=0;" vertex="1" parent="1">
          <mxGeometry x="1425" y="121.25" width="60" height="14" as="geometry" />
        </mxCell>
        <mxCell id="ZTiVV1zmq2l8TF0PZbIo-108" style="edgeStyle=orthogonalEdgeStyle;rounded=0;orthogonalLoop=1;jettySize=auto;html=1;exitX=1;exitY=0.5;exitDx=0;exitDy=0;entryX=0.5;entryY=1;entryDx=0;entryDy=0;endArrow=none;endFill=0;" edge="1" parent="1" source="ZTiVV1zmq2l8TF0PZbIo-107" target="ZTiVV1zmq2l8TF0PZbIo-104">
          <mxGeometry relative="1" as="geometry" />
        </mxCell>
        <mxCell id="ZTiVV1zmq2l8TF0PZbIo-107" value="Trabaja" style="rhombus;whiteSpace=wrap;html=1;" vertex="1" parent="1">
          <mxGeometry x="1550" y="297" width="80" height="45" as="geometry" />
        </mxCell>
        <mxCell id="ZTiVV1zmq2l8TF0PZbIo-110" value="(1,1)" style="text;html=1;strokeColor=none;fillColor=none;align=center;verticalAlign=middle;whiteSpace=wrap;rounded=0;" vertex="1" parent="1">
          <mxGeometry x="1640" y="186" width="60" height="14" as="geometry" />
        </mxCell>
        <mxCell id="ZTiVV1zmq2l8TF0PZbIo-111" value="(1,n)" style="text;html=1;strokeColor=none;fillColor=none;align=center;verticalAlign=middle;whiteSpace=wrap;rounded=0;" vertex="1" parent="1">
          <mxGeometry x="1467" y="302.5" width="60" height="14" as="geometry" />
        </mxCell>
        <mxCell id="ZTiVV1zmq2l8TF0PZbIo-112" value="Posee" style="rhombus;whiteSpace=wrap;html=1;" vertex="1" parent="1">
          <mxGeometry x="1376" y="390" width="100" height="45" as="geometry" />
        </mxCell>
        <mxCell id="ZTiVV1zmq2l8TF0PZbIo-114" value="Cargo" style="rounded=0;whiteSpace=wrap;html=1;" vertex="1" parent="1">
          <mxGeometry x="1210" y="389" width="110" height="47.5" as="geometry" />
        </mxCell>
        <mxCell id="ZTiVV1zmq2l8TF0PZbIo-116" value="(1,1)" style="text;html=1;strokeColor=none;fillColor=none;align=center;verticalAlign=middle;whiteSpace=wrap;rounded=0;" vertex="1" parent="1">
          <mxGeometry x="1409.5" y="348.25" width="60" height="14" as="geometry" />
        </mxCell>
        <mxCell id="ZTiVV1zmq2l8TF0PZbIo-117" value="(1,n)" style="text;html=1;strokeColor=none;fillColor=none;align=center;verticalAlign=middle;whiteSpace=wrap;rounded=0;" vertex="1" parent="1">
          <mxGeometry x="1305" y="397" width="60" height="14" as="geometry" />
        </mxCell>
        <mxCell id="ZTiVV1zmq2l8TF0PZbIo-118" value="" style="edgeStyle=orthogonalEdgeStyle;rounded=0;orthogonalLoop=1;jettySize=auto;html=1;exitX=0;exitY=0.5;exitDx=0;exitDy=0;entryX=1;entryY=0.5;entryDx=0;entryDy=0;endArrow=none;endFill=0;" edge="1" parent="1" source="ZTiVV1zmq2l8TF0PZbIo-112" target="ZTiVV1zmq2l8TF0PZbIo-114">
          <mxGeometry relative="1" as="geometry">
            <mxPoint x="1376" y="412.5" as="sourcePoint" />
            <mxPoint x="1320" y="412.75" as="targetPoint" />
          </mxGeometry>
        </mxCell>
      </root>
    </mxGraphModel>
  </diagram>
</mxfile>
